# Blender v2.91.0 OBJ File: 'Hook.blend'
# www.blender.org
mtllib Hook.mtl
o Cube
v -9.319325 8.043548 -9.284902
v -9.319325 7.382325 -9.284902
v -9.319325 8.043548 -4.446757
v -9.319325 7.382325 -4.446757
v -9.973750 8.043548 -9.284902
v -9.973750 7.382325 -9.284902
v -9.973750 8.043548 -4.446757
v -9.973750 7.382325 -4.446757
vt 0.094108 0.306608
vt 0.730892 0.306608
vt 0.730892 0.943391
vt 0.094108 0.943391
vt 0.375000 0.750000
vt 0.625000 0.750000
vt 0.625000 1.000000
vt 0.375000 1.000000
vt 0.375000 0.000000
vt 0.625000 0.000000
vt 0.625000 0.250000
vt 0.375000 0.250000
vt 0.125000 0.500000
vt 0.375000 0.500000
vt 0.125000 0.750000
vt 0.193463 0.318463
vt 0.806537 0.318463
vt 0.806537 0.931537
vt 0.193463 0.931537
vt 0.625000 0.500000
vn 0.0000 1.0000 0.0000
vn 0.0000 0.0000 1.0000
vn -1.0000 0.0000 0.0000
vn 0.0000 -1.0000 0.0000
vn 1.0000 0.0000 0.0000
vn 0.0000 0.0000 -1.0000
usemtl Material.001
s off
f 1/1/1 5/2/1 7/3/1 3/4/1
f 4/5/2 3/6/2 7/7/2 8/8/2
f 8/9/3 7/10/3 5/11/3 6/12/3
f 6/13/4 2/14/4 4/5/4 8/15/4
f 2/16/5 1/17/5 3/18/5 4/19/5
f 6/12/6 5/11/6 1/20/6 2/14/6
o Cube.009
v -8.490630 7.892256 -5.350666
v -8.490630 7.533617 -5.350666
v -8.490630 7.892256 -5.059662
v -8.490630 7.533617 -5.059662
v -9.409865 7.892256 -5.350666
v -9.409865 7.533617 -5.350666
v -9.409865 7.892256 -5.059662
v -9.409865 7.533617 -5.059662
vt 0.625000 0.500000
vt 0.875000 0.500000
vt 0.875000 0.750000
vt 0.625000 0.750000
vt 0.375000 0.750000
vt 0.625000 1.000000
vt 0.375000 1.000000
vt 0.375000 0.000000
vt 0.625000 0.000000
vt 0.625000 0.250000
vt 0.375000 0.250000
vt 0.125000 0.500000
vt 0.375000 0.500000
vt 0.125000 0.750000
vn 0.0000 1.0000 0.0000
vn 0.0000 0.0000 1.0000
vn -1.0000 0.0000 0.0000
vn 0.0000 -1.0000 0.0000
vn 1.0000 0.0000 0.0000
vn 0.0000 0.0000 -1.0000
usemtl Material.001
s off
f 9/21/7 13/22/7 15/23/7 11/24/7
f 12/25/8 11/24/8 15/26/8 16/27/8
f 16/28/9 15/29/9 13/30/9 14/31/9
f 14/32/10 10/33/10 12/25/10 16/34/10
f 10/33/11 9/21/11 11/24/11 12/25/11
f 14/31/12 13/30/12 9/21/12 10/33/12
o Cube.010
v -8.490630 7.892256 -7.204618
v -8.490630 7.533617 -7.204618
v -8.490630 7.892256 -6.913613
v -8.490630 7.533617 -6.913613
v -9.409865 7.892256 -7.204618
v -9.409865 7.533617 -7.204618
v -9.409865 7.892256 -6.913613
v -9.409865 7.533617 -6.913613
vt 0.625000 0.500000
vt 0.875000 0.500000
vt 0.875000 0.750000
vt 0.625000 0.750000
vt 0.375000 0.750000
vt 0.625000 1.000000
vt 0.375000 1.000000
vt 0.375000 0.000000
vt 0.625000 0.000000
vt 0.625000 0.250000
vt 0.375000 0.250000
vt 0.125000 0.500000
vt 0.375000 0.500000
vt 0.125000 0.750000
vn 0.0000 1.0000 0.0000
vn 0.0000 0.0000 1.0000
vn -1.0000 0.0000 0.0000
vn 0.0000 -1.0000 0.0000
vn 1.0000 0.0000 0.0000
vn 0.0000 0.0000 -1.0000
usemtl Material.001
s off
f 17/35/13 21/36/13 23/37/13 19/38/13
f 20/39/14 19/38/14 23/40/14 24/41/14
f 24/42/15 23/43/15 21/44/15 22/45/15
f 22/46/16 18/47/16 20/39/16 24/48/16
f 18/47/17 17/35/17 19/38/17 20/39/17
f 22/45/18 21/44/18 17/35/18 18/47/18
o Cube.011
v -8.490630 7.892256 -8.781469
v -8.490630 7.533617 -8.781469
v -8.490630 7.892256 -8.490465
v -8.490630 7.533617 -8.490465
v -9.409865 7.892256 -8.781469
v -9.409865 7.533617 -8.781469
v -9.409865 7.892256 -8.490465
v -9.409865 7.533617 -8.490465
vt 0.625000 0.500000
vt 0.875000 0.500000
vt 0.875000 0.750000
vt 0.625000 0.750000
vt 0.375000 0.750000
vt 0.625000 1.000000
vt 0.375000 1.000000
vt 0.375000 0.000000
vt 0.625000 0.000000
vt 0.625000 0.250000
vt 0.375000 0.250000
vt 0.125000 0.500000
vt 0.375000 0.500000
vt 0.125000 0.750000
vn 0.0000 1.0000 0.0000
vn 0.0000 0.0000 1.0000
vn -1.0000 0.0000 0.0000
vn 0.0000 -1.0000 0.0000
vn 1.0000 0.0000 0.0000
vn 0.0000 0.0000 -1.0000
usemtl Material.001
s off
f 25/49/19 29/50/19 31/51/19 27/52/19
f 28/53/20 27/52/20 31/54/20 32/55/20
f 32/56/21 31/57/21 29/58/21 30/59/21
f 30/60/22 26/61/22 28/53/22 32/62/22
f 26/61/23 25/49/23 27/52/23 28/53/23
f 30/59/24 29/58/24 25/49/24 26/61/24
